<?xml version="1.0" standalone="no"?>
<!DOCTYPE svg PUBLIC "-//W3C//DTD SVG 20010904//EN"
 "http://www.w3.org/TR/2001/REC-SVG-20010904/DTD/svg10.dtd">
<svg version="1.0" xmlns="http://www.w3.org/2000/svg"
 width="300.000000pt" height="229.000000pt" viewBox="0 0 300.000000 229.000000"
 preserveAspectRatio="xMidYMid meet">
<metadata>
Created by potrace 1.10, written by Peter Selinger 2001-2011
</metadata>
<g transform="translate(0.000000,229.000000) scale(0.100000,-0.100000)"
fill="#000000" stroke="none">
<path d="M884 2260 c-81 -37 -163 -119 -193 -192 -21 -53 -24 -55 -94 -83
-153 -59 -239 -152 -253 -272 -9 -77 -12 -86 -43 -119 -37 -40 -71 -94 -71
-115 0 -9 -23 -42 -50 -73 -28 -32 -60 -76 -72 -99 -29 -58 -35 -152 -13 -210
16 -44 16 -49 1 -88 -23 -58 -20 -170 6 -224 11 -22 47 -68 81 -102 l61 -62 3
-68 c8 -174 152 -305 374 -338 28 -4 41 -14 64 -51 16 -25 47 -59 69 -77 23
-17 43 -34 46 -37 3 -4 26 -16 51 -28 41 -20 61 -22 227 -22 l181 0 60 35 c72
42 134 112 161 180 18 47 19 75 17 497 l-2 447 -23 23 c-22 23 -27 23 -251 23
-278 0 -271 3 -271 -111 0 -96 10 -103 141 -105 119 -2 129 -4 129 -35 0 -25
-31 -63 -53 -65 -6 0 -21 -2 -32 -4 -197 -36 -365 48 -382 192 -20 172 173
290 390 239 37 -9 86 -25 109 -36 54 -26 58 -26 103 10 58 46 98 105 86 127
-38 71 -210 133 -368 133 -46 0 -51 6 -28 36 19 25 19 27 -5 54 -11 13 -20 26
-20 29 0 3 25 16 55 29 133 54 252 4 268 -112 9 -61 31 -92 75 -107 33 -11 37
-10 59 15 23 27 23 30 23 270 0 252 -6 298 -49 366 -29 46 -95 101 -159 130
-60 29 -67 30 -205 29 -134 0 -145 -2 -203 -29z m325 -11 c98 -22 189 -92 227
-174 23 -48 24 -59 24 -313 0 -145 -3 -262 -7 -260 -5 3 -23 11 -40 18 -31 14
-33 17 -33 65 0 62 -24 104 -81 142 -37 24 -52 28 -118 28 -60 0 -85 -5 -119
-23 -34 -17 -47 -20 -63 -11 -11 6 -19 18 -17 27 4 21 79 60 131 69 l37 6 0
63 c0 35 -4 64 -10 64 -19 0 -42 49 -36 76 8 31 66 59 105 49 63 -16 82 -77
36 -113 -22 -17 -25 -28 -25 -80 l0 -61 53 -15 c30 -9 65 -25 80 -36 14 -11
27 -20 29 -20 7 0 -3 258 -12 292 -15 53 -97 124 -168 144 -73 22 -200 15
-263 -13 -82 -37 -135 -96 -154 -175 -7 -26 -5 -28 24 -28 47 0 119 -20 132
-37 10 -11 9 -17 -4 -30 -15 -15 -22 -15 -68 -4 -28 7 -81 13 -118 13 -273 -3
-403 -278 -187 -393 51 -27 61 -55 22 -65 -30 -7 -75 16 -131 67 l-42 39 -26
-28 c-27 -28 -57 -90 -57 -117 0 -9 -27 -42 -59 -73 -44 -43 -62 -68 -71 -101
-17 -65 2 -168 25 -131 9 15 81 50 103 50 24 0 43 -22 34 -36 -4 -6 -23 -19
-42 -29 -225 -112 -140 -395 129 -431 42 -5 55 -3 72 12 33 30 96 25 125 -9
30 -35 30 -52 -1 -82 -29 -30 -88 -34 -125 -8 -24 17 -146 44 -155 34 -3 -2
-5 -26 -5 -53 0 -118 103 -217 245 -236 81 -10 151 0 214 32 61 30 74 32 91
11 10 -12 10 -18 -1 -32 -17 -20 -112 -63 -139 -63 -28 0 -25 -8 18 -65 29
-38 56 -59 115 -90 74 -37 83 -39 170 -40 80 0 100 4 152 28 69 32 109 67 135
117 15 29 19 65 22 193 l3 157 -64 0 c-57 0 -69 -4 -107 -33 -31 -23 -43 -39
-44 -58 0 -49 -58 -78 -115 -59 -88 29 -60 130 36 130 34 0 50 7 90 41 48 40
49 40 125 38 l77 -2 1 71 c1 40 -2 72 -5 72 -4 0 -31 -11 -60 -24 -88 -38
-157 -51 -279 -51 -133 0 -197 13 -297 62 -88 43 -161 113 -200 190 -25 51
-28 69 -28 153 0 84 3 102 28 153 58 117 185 207 343 243 58 13 106 15 198 12
130 -6 211 -26 295 -75 l43 -25 -58 -59 -58 -58 -30 18 c-71 44 -205 66 -300
51 -156 -25 -250 -109 -263 -235 -11 -107 52 -207 162 -256 77 -35 223 -39
315 -9 l70 23 0 74 0 74 -137 -2 -138 -1 -3 71 -3 71 241 0 241 0 -3 -462 c-3
-524 0 -502 -86 -585 -184 -179 -545 -132 -671 89 -15 26 -30 46 -33 43 -12
-12 -146 18 -204 46 -137 65 -215 217 -169 330 4 12 -3 20 -25 29 -17 7 -53
37 -80 67 -81 89 -99 193 -50 285 19 35 19 36 -1 74 -25 51 -25 144 1 202 11
23 42 65 70 92 27 27 50 56 50 65 0 29 40 95 82 136 40 38 41 43 39 94 -3 69
23 129 81 186 48 47 148 98 208 106 35 5 40 9 40 32 1 75 83 175 184 222 96
45 199 54 315 28z m29 -124 c53 -29 102 -93 103 -135 0 -14 1 -51 3 -83 2 -75
-3 -84 -43 -68 -48 21 -52 66 -10 120 50 63 -6 145 -106 156 -25 3 -67 -19
-90 -47 -30 -36 -32 -83 -5 -118 11 -14 20 -39 20 -56 0 -28 -5 -32 -70 -61
-62 -28 -73 -37 -88 -72 l-17 -41 -76 0 c-70 0 -79 3 -114 30 -51 41 -84 43
-122 7 -33 -29 -29 -48 19 -96 62 -60 111 -81 194 -81 45 0 77 -5 90 -14 22
-17 26 -14 -76 -41 -198 -51 -335 -179 -371 -345 -47 -221 100 -427 360 -501
79 -23 240 -34 306 -21 27 6 52 8 54 6 6 -6 -60 -62 -79 -68 -8 -2 -31 -7 -51
-10 -20 -4 -49 -19 -67 -37 -43 -42 -43 -85 -1 -134 27 -31 37 -35 78 -35 61
0 103 27 130 82 12 25 33 50 47 56 30 14 71 16 78 3 11 -17 14 -175 6 -229
-15 -87 -72 -140 -181 -168 -107 -27 -231 1 -302 68 l-42 39 56 34 c30 19 61
46 69 60 12 22 11 28 -6 52 -31 41 -54 44 -120 17 -32 -14 -85 -29 -116 -34
-136 -20 -278 58 -295 164 -5 30 -3 36 13 37 35 2 59 -3 94 -19 19 -9 54 -17
77 -17 34 0 48 6 77 34 42 40 45 70 16 119 -32 52 -101 67 -174 37 -34 -14
-43 -14 -99 0 -75 19 -124 56 -154 115 -40 78 -24 147 47 201 57 43 100 87
100 102 0 8 -14 27 -32 42 -25 22 -38 25 -62 20 -17 -4 -41 -9 -53 -12 -20 -5
-21 -2 -17 28 7 44 27 75 80 123 32 29 47 52 59 93 9 29 22 56 30 59 8 3 41
-11 75 -32 69 -43 111 -47 140 -16 37 40 19 79 -64 135 -40 28 -59 63 -59 113
0 52 19 83 82 131 69 53 163 70 259 47 32 -7 62 -13 69 -14 17 0 73 49 73 65
0 28 -48 70 -94 83 -59 15 -60 37 -5 87 49 44 98 66 159 73 25 2 46 5 48 7 9
8 110 -18 150 -40z m-508 -410 c41 -34 44 -35 127 -35 83 0 86 -1 126 -35 22
-19 44 -35 49 -35 4 0 8 -4 8 -9 0 -10 -102 -2 -115 10 -5 5 -46 9 -92 9 l-83
0 -60 47 c-33 25 -60 49 -60 53 0 12 24 30 41 30 9 0 36 -16 59 -35z m610
-1031 c0 -10 -12 -14 -40 -14 -48 0 -50 6 -7 24 35 15 47 12 47 -10z"/>
<path d="M1160 2025 c-17 -21 -5 -45 23 -45 35 0 52 23 32 44 -20 20 -39 20
-55 1z"/>
<path d="M555 646 c-16 -12 -17 -16 -6 -30 7 -9 21 -16 31 -16 10 0 24 7 31
16 11 14 10 18 -6 30 -10 8 -22 14 -25 14 -3 0 -15 -6 -25 -14z"/>
<path d="M1054 495 c-7 -17 12 -45 30 -45 7 0 21 6 31 14 16 12 17 16 6 30
-17 20 -60 21 -67 1z"/>
<path d="M1738 2262 c-71 -33 -154 -111 -182 -172 -19 -42 -21 -62 -21 -277 0
-231 0 -231 24 -257 l24 -26 -21 -23 c-13 -13 -22 -36 -22 -54 0 -28 10 -45
80 -135 l21 -27 -28 14 c-25 13 -29 13 -50 -7 -23 -21 -23 -23 -23 -302 0
-272 1 -280 21 -302 l22 -23 -27 -31 c-26 -31 -26 -33 -26 -200 0 -149 3 -176
21 -227 27 -72 89 -138 168 -181 l60 -32 177 0 176 0 58 31 c62 33 143 106
166 151 14 26 23 30 114 44 24 3 51 10 60 14 8 4 36 18 62 31 119 59 202 186
192 294 -5 45 -3 48 55 108 65 68 95 115 106 168 11 50 7 126 -10 166 -13 31
-13 41 0 86 33 111 8 210 -73 299 -22 24 -51 68 -64 98 -14 30 -43 77 -66 103
-37 42 -42 54 -42 96 0 109 -101 235 -230 287 -36 14 -71 29 -79 33 -8 4 -30
36 -48 72 -41 78 -101 136 -185 177 -62 32 -65 32 -208 32 -136 -1 -149 -3
-202 -28z m272 -3 c159 -26 273 -115 303 -238 11 -46 13 -49 49 -54 51 -7 156
-57 200 -96 55 -48 88 -122 88 -197 0 -55 3 -64 25 -78 37 -24 84 -93 91 -135
5 -25 20 -47 50 -74 24 -21 55 -62 70 -92 22 -46 26 -65 22 -117 -2 -35 -11
-77 -20 -95 -15 -30 -15 -34 5 -75 30 -59 28 -147 -2 -208 -27 -52 -84 -115
-124 -136 -27 -15 -28 -17 -22 -69 20 -160 -112 -305 -308 -335 -37 -6 -72 -8
-77 -5 -4 3 -18 -15 -30 -39 -28 -58 -107 -132 -175 -162 -172 -76 -386 -44
-506 76 -69 69 -79 108 -79 322 l0 178 40 0 40 0 0 -182 c0 -157 3 -189 19
-223 24 -53 64 -88 133 -120 112 -51 256 -41 361 27 48 30 107 99 107 122 0 7
-19 17 -42 24 -60 16 -108 48 -108 71 0 32 33 34 91 4 43 -23 69 -29 136 -32
130 -5 231 37 289 121 35 49 45 139 21 184 -18 36 -14 45 33 69 61 31 96 63
123 114 60 110 16 224 -112 293 -41 23 -39 52 4 56 20 2 44 -6 68 -23 21 -14
42 -25 47 -25 16 0 21 76 9 126 -10 39 -25 61 -71 106 -33 33 -58 66 -58 78 0
36 -38 98 -85 137 -45 37 -46 39 -40 84 23 165 -164 304 -360 268 -99 -19
-120 -17 -123 8 -4 26 21 39 91 49 67 9 66 8 55 53 -25 99 -136 172 -273 179
-133 7 -227 -31 -286 -117 -22 -31 -24 -48 -29 -180 -3 -80 -4 -147 -4 -149 1
-2 19 8 41 22 21 13 57 30 81 36 l42 11 0 61 c0 52 -4 64 -25 84 -33 30 -32
67 1 93 52 41 144 12 144 -45 0 -14 -11 -35 -25 -48 -21 -20 -25 -32 -25 -83
l0 -60 41 -7 c43 -7 119 -41 131 -59 9 -15 -1 -35 -23 -42 -12 -4 -34 2 -54
15 -44 27 -138 37 -191 20 -77 -25 -134 -86 -134 -145 0 -23 -4 -25 -40 -25
l-40 0 0 223 c0 212 1 224 24 272 42 91 148 164 266 184 76 12 77 12 150 0z
m70 -127 c52 -24 82 -49 99 -81 18 -33 8 -48 -38 -56 -28 -4 -49 -16 -66 -37
-31 -36 -31 -40 -2 -74 26 -30 48 -32 145 -13 79 15 144 2 217 -42 76 -46 100
-87 98 -168 -1 -44 3 -74 13 -89 8 -12 12 -27 9 -32 -3 -6 -44 -10 -91 -10
-81 0 -86 -1 -119 -32 -19 -18 -84 -100 -143 -182 -60 -83 -113 -151 -119
-153 -6 -2 -16 2 -23 9 -22 25 -122 164 -177 246 -31 46 -65 90 -77 98 -12 8
-44 14 -82 14 -67 0 -80 6 -61 28 6 8 19 33 28 56 37 93 152 132 254 87 26
-11 59 -21 73 -21 25 0 72 41 72 63 0 27 -35 59 -101 92 -79 40 -83 49 -43
125 17 34 23 56 19 72 -25 80 -144 114 -203 57 -47 -45 -50 -88 -11 -138 22
-27 25 -84 7 -99 -24 -19 -60 -25 -69 -11 -16 26 -1 168 23 210 23 42 85 84
150 104 52 15 162 3 218 -23z m-153 -843 c79 -112 147 -205 151 -206 4 -1 72
90 152 203 l144 204 87 0 c48 0 94 3 103 6 14 6 16 -33 16 -390 l0 -396 -101
0 -100 0 3 250 c2 138 1 250 -2 249 -6 0 -253 -344 -258 -359 -2 -5 -20 -10
-41 -10 -36 0 -39 4 -163 168 -70 92 -175 226 -235 297 -102 123 -113 142
-104 185 1 3 47 4 102 4 l102 -2 144 -203z m730 131 c9 -29 30 -60 66 -96 50
-49 89 -126 73 -142 -3 -3 -23 0 -45 7 -45 13 -83 3 -103 -29 -7 -11 -16 -20
-20 -20 -5 0 -8 75 -8 166 0 126 3 165 12 162 7 -3 18 -24 25 -48z m-976 -248
l98 -117 1 -172 0 -173 -102 0 -103 0 0 294 c0 162 2 292 4 290 3 -2 49 -57
102 -122z m1041 -133 c114 -82 103 -207 -25 -293 -77 -51 -94 -77 -79 -120 24
-65 11 -139 -31 -184 -32 -35 -111 -72 -174 -82 -64 -11 -131 1 -206 36 -46
21 -53 22 -79 8 -16 -8 -33 -26 -38 -40 -13 -34 19 -76 77 -104 23 -11 43 -24
43 -28 0 -14 -63 -68 -100 -86 -59 -29 -170 -41 -234 -27 -71 16 -150 73 -170
123 -10 24 -17 93 -21 209 -5 130 -10 178 -22 195 l-15 24 55 0 c44 0 62 5 83
23 l27 24 0 181 0 180 22 -26 c12 -15 56 -73 98 -128 81 -107 114 -131 165
-119 36 8 51 23 147 155 41 58 81 105 88 105 8 0 12 -44 12 -170 0 -143 3
-175 17 -197 27 -40 8 -48 -115 -48 -121 0 -124 1 -217 75 -84 67 -117 75
-153 39 -15 -15 -27 -34 -27 -42 0 -9 25 -40 55 -68 30 -29 55 -57 55 -62 0
-6 -22 -26 -50 -46 -58 -41 -75 -66 -85 -121 -4 -21 -15 -51 -26 -66 -30 -42
-24 -77 19 -118 21 -20 49 -37 63 -38 63 -6 139 51 139 104 0 14 -9 41 -21 60
-20 32 -20 35 -4 59 9 14 37 39 63 55 47 30 48 30 172 26 89 -2 138 -8 170
-21 56 -22 106 -10 144 35 33 39 33 79 0 118 l-26 31 27 0 c14 0 37 11 50 25
25 24 25 25 25 226 l0 203 28 -25 c15 -14 48 -41 74 -60z m-696 -359 l85 -70
122 0 c102 0 127 3 164 21 47 23 90 20 116 -9 63 -70 -49 -152 -126 -92 -22
18 -40 20 -161 20 l-136 0 -75 -52 c-70 -49 -75 -54 -75 -89 0 -21 7 -42 16
-49 27 -23 35 -47 23 -73 -24 -54 -119 -62 -151 -13 -16 23 -8 65 16 84 19 14
26 30 28 67 l3 49 82 55 c45 31 82 58 82 61 0 3 -36 32 -79 65 -44 33 -80 62
-80 65 0 13 25 30 43 30 10 0 57 -31 103 -70z"/>
<path d="M1814 2025 c-10 -24 19 -49 45 -40 16 5 21 13 19 28 -4 28 -55 37
-64 12z"/>
<path d="M2299 1671 c-37 -23 -61 -29 -129 -35 -93 -7 -116 -18 -207 -101 -61
-54 -67 -82 -27 -114 38 -30 55 -27 131 26 65 45 72 47 153 52 77 5 90 9 133
40 62 45 92 92 77 120 -25 48 -69 52 -131 12z m99 -13 c18 -18 16 -22 -47 -72
l-59 -46 -82 0 -82 0 -62 -48 c-81 -64 -83 -65 -106 -52 -32 17 -24 33 44 83
35 25 69 53 76 62 9 11 34 15 102 15 88 0 91 1 131 35 43 37 65 43 85 23z"/>
<path d="M2422 598 c-19 -19 -14 -37 14 -44 17 -4 31 -1 41 8 13 13 13 17 -2
32 -19 19 -37 20 -53 4z"/>
<path d="M1874 325 c-9 -23 3 -45 24 -45 29 0 48 26 32 45 -7 8 -21 15 -32 15
-10 0 -21 -7 -24 -15z"/>
</g>
</svg>
